<svg version="1" xmlns="http://www.w3.org/2000/svg" width="822.667" height="822.667" viewBox="0 0 617.000000 617.000000"><path d="M361.6 175.6c-7.4 1.3-30.4 8.4-33.4 10.3-1.1.7-1.7 25-3.1 128.2-1 70.1-1.7 127.5-1.6 127.7.1.1 5.6.9 12.1 1.7 63 7.6 111.9 2.7 146.8-14.6C520.6 410 541 372.6 541 321.5c-.1-59.2-27.6-106.8-75.5-130.5-16.8-8.3-30.6-12.6-50-15.5-12.8-1.9-43-1.9-53.9.1zm62.3 74.9c21.1 5 38 22.8 42.6 45 1.9 9 1.9 27 0 36-5.4 25.8-28.2 42.5-58 42.5-4.4 0-9-.3-10.3-.6l-2.2-.6.2-61.2.3-61.1 3.5-.6c6.5-1.2 17.5-.9 23.9.6zM170.5 178.1c-23.7 2.2-45.7 6.6-58.2 11.6l-6.3 2.5v249.6l2.3.5c4.6 1.2 70.9 2.9 87.1 2.3 44.6-1.7 72.6-10.9 89.9-29.5 6.3-6.8 9.7-12.6 13.1-22.1 5-13.8 5.8-33.7 2-49-2.4-9.6-10.5-25.6-16.4-32.2-6.6-7.4-17.7-14.3-26.4-16.4l-6.7-1.7 5.3-3c11-6.3 19.1-16.9 22.3-29.4 3.3-12.7 1.1-34.2-4.6-45.5-7.7-15.2-23.7-27.6-43.4-33.7-15.1-4.7-36.9-6.2-60-4zm33.3 54.4c16.2 6.8 19.3 25.3 5.7 34.7-6.9 4.7-21.5 7.2-31.4 5.2l-3.1-.7.2-19.6.3-19.6 5.5-1.2c6.6-1.5 17.7-.9 22.8 1.2zm7.1 102.7c16 4.9 22.7 21.5 14.2 35.1-3.2 4.9-9.7 9.9-16.3 12.4-5.5 2-23.7 2.3-29 .5l-3.8-1.4v-44.9l3.7-1.5c8.9-3.8 19.5-3.8 31.2-.2z"/></svg>